<svg version="1" xmlns="http://www.w3.org/2000/svg" width="168" height="168" viewBox="0 0 126.000000 126.000000">
    <path d="M76 50.5c-1.5 1.9.3 4.7 2.6 3.8 1.8-.7 1.8-2.7 0-4.2-1-.9-1.6-.8-2.6.4zM96.9 50.7c-.1 2.1-.1 22.5 0 23.5.1.5 1 .8 2.1.8 1.8 0 2-.7 2-6.4 0-4.5.4-6.7 1.5-7.6 2.6-2.2 3.9.4 3.9 7.5 0 5.4.3 6.5 1.7 6.5.9 0 1.9-.6 2.1-1.3.9-2.3.1-14.8-.9-15.8-1.5-1.5-4.5-1.8-6.5-.7-1.6.8-1.8.4-1.8-3.1 0-2.6-.5-4.1-1.6-4.5-2.2-.9-2.4-.8-2.5 1.1zM7.8 51.1c-3.7 1-5.4 2.9-6.6 7.1-1.9 6.8.9 15 5.5 16.5 7.1 2.5 12.5-2.7 12.5-11.8-.1-8.7-4.9-13.6-11.4-11.8zm5.6 6.1c3.3 4.6 1 13.8-3.4 13.8-1 0-2.6-1-3.4-2.2C3.3 64.2 5.6 55 10 55c1 0 2.6 1 3.4 2.2zM62.2 53.9c-1 1.9-2.3 2.9-3.1 2.6-.8-.3-2.2.2-3.2 1.1-1.1 1-1.9 1.2-1.9.6 0-.7-.8-1.2-1.7-1.2-1.6 0-1.8 1.1-1.8 9 0 8.6.1 9 2.2 9 2 0 2.2-.6 2.5-6.3.3-5.3.6-6.3 2.6-7.2C59 61 60 59.8 60.1 59c0-.9.3-.7.9.6.4 1.1 2.6 3.5 4.9 5.3 5.3 4.2 4.7 6.6-1.5 5.6-3.5-.5-4.2-.3-4 1 .7 5 10.1 5.1 12.4.1 1.8-4.1.4-7.7-4.5-10.7-4.4-2.8-4.1-5.4.7-5.4 2.8 0 3.5-.4 3.5-2s-.8-2.1-4.3-2.3c-3.8-.3-4.4 0-6 2.7zM114.1 55.6c-2.2 3.7-2.6 5.4-1.3 5.4.4 0 .8 2.7.8 6.1.2 6.7 1.9 8.9 6 8.1 3-.6 3.3-4.2.4-4.2-1.8 0-2-.7-2-5.4 0-4.5.3-5.4 1.7-5.2 1 0 1.9-.7 2.1-1.7.2-1.2-.3-1.7-1.7-1.7s-2.1-.6-2.1-1.9c0-3.4-1.7-3.2-3.9.5zM20 57.2c0 .6 1.2 4.8 2.6 9.4 2.2 7.3 2.8 8.4 4.8 8.4s2.6-1 4.6-7.8c1.3-4.2 2.5-8.3 2.7-9 .3-.7-.4-1.2-1.9-1.2-2.1 0-2.5.7-3.8 6.2l-1.4 6.3-1.9-6.1c-1.3-4.4-2.4-6.3-3.8-6.7-1-.3-1.9-.1-1.9.5zM37.4 58.5C35.5 60.4 35 62 35 65.7c0 2.6.6 5.6 1.4 6.5 2.8 3.8 10.7 4.1 11.4.5.3-1.4-.3-1.7-3-1.5-3.9.2-5.8-.7-5.8-2.8 0-1 1.3-1.4 4.9-1.4 4.7 0 4.8-.1 4.6-2.8-.3-3.5-2.2-7.2-3.8-7.3-.7 0-2-.2-3.1-.4-1-.2-2.9.7-4.2 2zm6.6 3c1.3 1.6.2 2.4-3.2 2.2-2 0-2 0-1.2-2.1.8-2 2.8-2.1 4.4-.1zM75.8 56.5c-.2.2-.3 4.3-.2 9.2.1 8.2.2 8.8 2.2 9.1 2 .3 2.1-.1 2-8.7 0-7.7-.3-9-1.9-9.4-1-.3-1.9-.3-2.1-.2zM82.7 58.3c-1.4 1.4-1.7 2.7-1.3 5 1.2 5.7 1 10.5-.3 12.1-2 2.3-.6 6.4 2.4 7.2 3.8.9 9.3-.4 10.5-2.6 2.6-4.8 0-9-5.6-9-1.9 0-3.4-.5-3.4-1 0-.6 1-1 2.3-1 3.5 0 5.7-2.1 6-5.7.1-1.8.6-3.3 1-3.3.5 0 .7-.7.5-1.6-.5-2.6-9.5-2.7-12.1-.1zm6.6 5.7c-.6 2.2-.6 2.2-2.7 1.4-1.9-.7-2.1-3.5-.4-5.2 1.7-1.7 3.8 1.1 3.1 3.8zm1.4 12.6c.6 1.5-1.1 3.4-3.2 3.4-.5 0-1.6-.4-2.4-.9-2.1-1.4-.5-4.1 2.4-4.1 1.4 0 2.8.7 3.2 1.6z"/>
</svg>